<?xml version="1.0" encoding="UTF-8" standalone="no"?>
<!-- Uploaded to: SVG Repo, www.svgrepo.com, Transformed by: SVG Repo Mixer Tools -->

<svg
   width="800px"
   height="800px"
   viewBox="0 0 48.00 48.00"
   fill="none"
   stroke="#2ca9bc"
   stroke-width="0.00048000000000000007"
   transform="matrix(1, 0, 0, 1, 0, 0)"
   version="1.1"
   id="svg25"
   sodipodi:docname="city-svgrepo-com.svg"
   inkscape:version="1.2.2 (732a01da63, 2022-12-09)"
   xmlns:inkscape="http://www.inkscape.org/namespaces/inkscape"
   xmlns:sodipodi="http://sodipodi.sourceforge.net/DTD/sodipodi-0.dtd"
   xmlns="http://www.w3.org/2000/svg"
   xmlns:svg="http://www.w3.org/2000/svg">
  <defs
     id="defs29" />
  <sodipodi:namedview
     id="namedview27"
     pagecolor="#505050"
     bordercolor="#eeeeee"
     borderopacity="1"
     inkscape:showpageshadow="0"
     inkscape:pageopacity="0"
     inkscape:pagecheckerboard="0"
     inkscape:deskcolor="#505050"
     showgrid="false"
     inkscape:zoom="0.73627494"
     inkscape:cx="128.34879"
     inkscape:cy="504.56695"
     inkscape:window-width="1920"
     inkscape:window-height="991"
     inkscape:window-x="-9"
     inkscape:window-y="1271"
     inkscape:window-maximized="1"
     inkscape:current-layer="SVGRepo_iconCarrier" />
  <g
     id="SVGRepo_iconCarrier"
     style="display:inline">
    <g
       id="g902">
      <path
         style="display:inline;fill:#2ca9bc;fill-opacity:1;stroke:#2ca9bc;stroke-width:3.12;stroke-linecap:square;stroke-linejoin:miter;stroke-miterlimit:200;stroke-dasharray:none;stroke-opacity:1;paint-order:normal"
         d="M 32.297719,34.944201 V 23.448403 h 3.728646 c 3.642311,0 3.735674,0.0029 4.032203,0.126487 0.202409,0.08434 0.607408,0.322066 0.6363,0.526518 l 0.01582,0.111916 V 35.326662 46.44 h -4.206482 -4.206483 z"
         id="path1161"
         sodipodi:nodetypes="ccscscccccc" />
      <g
         id="g1789"
         style="display:inline"
         transform="translate(0,5.88)">
        <path
           d="m 35,19.989855 c -0.5523,0 -1,0.4477 -1,1 v 2 c 0,0.5523 0.4477,1 1,1 h 2 c 0.5523,0 1,-0.4477 1,-1 v -2 c 0,-0.5523 -0.4477,-1 -1,-1 z"
           fill="#000000"
           id="path16" />
        <path
           d="m 34,26.989855 c 0,-0.5523 0.4477,-1 1,-1 h 2 c 0.5523,0 1,0.4477 1,1 v 2 c 0,0.5523 -0.4477,1 -1,1 h -2 c -0.5523,0 -1,-0.4477 -1,-1 z"
           fill="#000000"
           id="path18" />
        <path
           d="m 35,31.989855 c -0.5523,0 -1,0.4477 -1,1 v 2 c 0,0.5523 0.4477,1 1,1 h 2 c 0.5523,0 1,-0.4477 1,-1 v -2 c 0,-0.5523 -0.4477,-1 -1,-1 z"
           fill="#000000"
           id="path20" />
      </g>
    </g>
    <g
       id="g891">
      <path
         style="display:inline;fill:#000000;fill-opacity:1;stroke:#000000;stroke-width:3.69354;stroke-linecap:square;stroke-linejoin:miter;stroke-miterlimit:200;stroke-dasharray:none;stroke-opacity:1;paint-order:normal"
         d="m 16.92386,28.706356 c 0,-14.544879 0.01333,-17.501146 0.07995,-17.737339 0.101921,-0.361366 0.389732,-0.720903 0.669103,-0.835847 0.143801,-0.05918 2.311519,-0.08854 6.371547,-0.08635 6.519395,0.0035 6.417015,-0.0026 6.722507,0.399851 0.06689,0.08811 0.17005,0.316471 0.229257,0.507478 0.103309,0.333292 0.107698,1.049635 0.108932,17.776699 l 0.0013,17.42941 h -7.091252 -7.091286 z"
         id="path1916" />
      <g
         id="g1741"
         style="display:inline;fill:#2ca9bc;fill-opacity:1;fill-rule:nonzero;stroke:none"
         transform="translate(0.16388684,3.9869482)">
        <rect
           style="fill:#2ca9bc;fill-opacity:1;fill-rule:nonzero;stroke:none;stroke-width:0.116727;stroke-linecap:square;stroke-linejoin:round;stroke-miterlimit:200;stroke-dasharray:none;stroke-opacity:1;paint-order:normal"
           id="rect1536-5"
           width="3.9936688"
           height="3.8675532"
           x="25.01753"
           y="26.017738"
           ry="0.72866935" />
        <rect
           style="fill:#2ca9bc;fill-opacity:1;fill-rule:nonzero;stroke:none;stroke-width:0.116727;stroke-linecap:square;stroke-linejoin:round;stroke-miterlimit:200;stroke-dasharray:none;stroke-opacity:1;paint-order:normal"
           id="rect1536-9"
           width="3.9936688"
           height="3.8675532"
           x="25.017532"
           y="20.028128"
           ry="0.72866935" />
        <rect
           style="fill:#2ca9bc;fill-opacity:1;fill-rule:nonzero;stroke:none;stroke-width:0.116727;stroke-linecap:square;stroke-linejoin:round;stroke-miterlimit:200;stroke-dasharray:none;stroke-opacity:1;paint-order:normal"
           id="rect1536-0"
           width="3.9936688"
           height="3.8675532"
           x="19.006767"
           y="14.05662"
           ry="0.72866935" />
        <rect
           style="fill:#2ca9bc;fill-opacity:1;fill-rule:nonzero;stroke:none;stroke-width:0.116727;stroke-linecap:square;stroke-linejoin:round;stroke-miterlimit:200;stroke-dasharray:none;stroke-opacity:1;paint-order:normal"
           id="rect1536-59"
           width="3.9936688"
           height="3.8675532"
           x="24.976786"
           y="32.048096"
           ry="0.72866935" />
        <rect
           style="fill:#2ca9bc;fill-opacity:1;fill-rule:nonzero;stroke:none;stroke-width:0.116727;stroke-linecap:square;stroke-linejoin:round;stroke-miterlimit:200;stroke-dasharray:none;stroke-opacity:1;paint-order:normal"
           id="rect1536-2"
           width="3.9936688"
           height="3.8675532"
           x="24.999565"
           y="14.085431"
           ry="0.72866935" />
        <rect
           style="fill:#2ca9bc;fill-opacity:1;fill-rule:nonzero;stroke:none;stroke-width:0.116727;stroke-linecap:square;stroke-linejoin:round;stroke-miterlimit:200;stroke-dasharray:none;stroke-opacity:1;paint-order:normal"
           id="rect1536"
           width="3.9936688"
           height="3.8675532"
           x="19.013971"
           y="8.0511837"
           ry="0.72866935" />
        <rect
           style="fill:#2ca9bc;fill-opacity:1;fill-rule:nonzero;stroke:none;stroke-width:0.116727;stroke-linecap:square;stroke-linejoin:round;stroke-miterlimit:200;stroke-dasharray:none;stroke-opacity:1;paint-order:normal"
           id="rect1536-3"
           width="3.9936688"
           height="3.8675532"
           x="24.999565"
           y="8.0350103"
           ry="0.72866935" />
      </g>
    </g>
    <g
       id="g864">
      <path
         style="display:inline;fill:#2ca9bc;fill-opacity:1;stroke:#2ca9bc;stroke-width:3.12;stroke-linecap:square;stroke-linejoin:miter;stroke-miterlimit:200;stroke-dasharray:none;stroke-opacity:1;paint-order:normal"
         d="m 7.6350541,34.470776 c 0,-9.978286 0.013858,-12.006386 0.083146,-12.168424 0.1060075,-0.247909 0.4053644,-0.494563 0.6959432,-0.573419 0.149569,-0.04059 2.4042437,-0.06074 6.6271387,-0.05924 6.780917,0.0024 6.674431,-0.0018 6.992177,0.274312 0.06957,0.06044 0.176871,0.21711 0.238453,0.348147 0.107454,0.22865 0.112019,0.720086 0.113304,12.195425 l 0.0013,11.957174 H 15.010804 7.6350541 Z"
         id="path1159" />
      <g
         id="g820"
         style="display:inline"
         transform="translate(0,3.9498548)">
        <path
           d="m 10,21 c 0,-0.5523 0.4477,-1 1,-1 h 2 c 0.5523,0 1,0.4477 1,1 v 2 c 0,0.5523 -0.4477,1 -1,1 h -2 c -0.5523,0 -1,-0.4477 -1,-1 z"
           fill="#000000"
           id="path4" />
        <path
           d="m 16,21 c 0,-0.5523 0.4477,-1 1,-1 h 2 c 0.5523,0 1,0.4477 1,1 v 2 c 0,0.5523 -0.4477,1 -1,1 h -2 c -0.5523,0 -1,-0.4477 -1,-1 z"
           fill="#000000"
           id="path6" />
        <path
           d="m 11,26 c -0.5523,0 -1,0.4477 -1,1 v 2 c 0,0.5523 0.4477,1 1,1 h 2 c 0.5523,0 1,-0.4477 1,-1 v -2 c 0,-0.5523 -0.4477,-1 -1,-1 z"
           fill="#000000"
           id="path8" />
        <path
           d="m 10,33 c 0,-0.5523 0.4477,-1 1,-1 h 2 c 0.5523,0 1,0.4477 1,1 v 2 c 0,0.5523 -0.4477,1 -1,1 h -2 c -0.5523,0 -1,-0.4477 -1,-1 z"
           fill="#000000"
           id="path10" />
        <path
           d="m 17,26 c -0.5523,0 -1,0.4477 -1,1 v 2 c 0,0.5523 0.4477,1 1,1 h 2 c 0.5523,0 1,-0.4477 1,-1 v -2 c 0,-0.5523 -0.4477,-1 -1,-1 z"
           fill="#000000"
           id="path12" />
        <path
           d="m 16,33 c 0,-0.5523 0.4477,-1 1,-1 h 2 c 0.5523,0 1,0.4477 1,1 v 2 c 0,0.5523 -0.4477,1 -1,1 h -2 c -0.5523,0 -1,-0.4477 -1,-1 z"
           fill="#000000"
           id="path14" />
      </g>
    </g>
  </g>
</svg>
